<svg width="190" height="154" viewBox="0 0 190 154" fill="none" xmlns="http://www.w3.org/2000/svg">
<path d="M75.3539 56.9293C41.406 59.0687 27.5573 59.8128 21.6595 80.069C44.2627 66.384 39.5209 70.3872 59.0351 67.7094C78.5493 65.0315 89.233 67.0129 124.523 44.7284C86.2675 57.9137 84.1577 56.0832 75.3539 56.9293Z" fill="black"/>
<path d="M133.955 46.551C148.532 44.837 163.057 55.1547 178.411 71.3055C162.396 62.4149 145.796 58.8477 136.333 58.297C126.871 57.7463 106.552 64.4449 87.6936 65.5995C106.586 59.9046 121.734 47.988 133.955 46.551Z" fill="black"/>
<ellipse cx="92.2313" cy="32.1176" rx="13.5714" ry="13.5405" fill="black"/>
<ellipse cx="23.3972" cy="97.7088" rx="10.8571" ry="10.8324" fill="#088E8E"/>
<path d="M104.5 88.0131C89.4162 92.4596 64.4027 136.123 59.7144 147.591C74.6429 133.189 94.5066 117.187 113.753 112.386C130.639 108.174 190 133.189 190 133.189C170.753 115.586 128.929 80.812 104.5 88.0131Z" fill="black"/>
</svg>
