<svg width="190" height="114" viewBox="0 0 190 114" fill="none" xmlns="http://www.w3.org/2000/svg">
<ellipse rx="13.3666" ry="13.3621" transform="matrix(-1 0 0 1 92.8982 13.3621)" fill="black"/>
<path d="M96.9082 46.0994C125.76 63.1449 145.091 45.8391 151.136 34.7761C152.38 78.8366 101.587 58.7934 96.9082 56.121C96.9082 56.121 80.1999 48.7718 59.2007 13.4029C86.8832 42.0908 89.5566 41.4226 96.9082 46.0994Z" fill="black"/>
<path d="M157.451 86.4177C161.601 98.5144 168.992 96.3275 174.149 94.4439C166.658 95.2452 160.784 92.4915 159.267 84.9802C157.751 77.4689 164.969 77.7904 169.282 79.5047C179.036 83.3823 195.346 97.5436 162.284 108.321C200.693 103.557 182.195 80.3289 170.873 76.2323C163.353 73.5114 153.498 74.897 157.451 86.4177Z" fill="#088E8E"/>
<path d="M50.1249 10.7737C38.0949 2.75637 20.7183 5.34486 0 12.694C18.045 12.0259 34.2186 16.3018 42.7733 20.0432C51.3279 23.7846 66.1649 38.7502 82.2049 48.1876C68.1699 34.7416 60.2108 17.4953 50.1249 10.7737Z" fill="black"/>
<path d="M66.1649 62.802C35.6889 54.2502 17.4983 95.5391 1.45836 109.569C30.865 98.8796 32.08 78.8366 58.8132 78.8366C79.1305 78.8366 125.869 97.0982 145.028 105.561C131.439 94.8712 96.6408 71.3538 66.1649 62.802Z" fill="black"/>
<path d="M160.564 100.895C168.628 102.102 171.549 99.0552 171.549 99.0552C170.342 101.721 167.072 104.546 158.659 103.117C149.353 101.536 140.286 95.0508 133.783 79.2619C145.147 96.8099 154.74 100.023 160.564 100.895Z" fill="#088E8E"/>
</svg>
